# File produced by Open Asset Import Library (http://www.assimp.sf.net)
# (assimp v3.1.0)

mtllib plane.mtl

# 8 vertex positions
v  -50 -1 -50
v  50 -1 -50
v  -50 -1 50
v  50 -1 50
v  50 0 50
v  50 0 -50
v  -50 0 50
v  -50 0 -50

# 4 UV coordinates
vt 0.004998 9.995 0
vt 9.995 9.995 0
vt 0.004995 0.00499803 0
vt 9.995 0.00499499 0

# 6 vertex normals
vn 0 -1 0
vn 0 1 0
vn 0 0 1
vn 1 0 0
vn 0 0 -1
vn -1 0 0

# Mesh 'Box01' with 12 faces
g Box01
usemtl PDX01_-_Default
f  1/1/1 2/2/1 3/3/1
f  4/4/1 3/3/1 2/2/1
f  5/4/2 6/2/2 7/3/2
f  8/1/2 7/3/2 6/2/2
f  4/4/3 5/4/3 3/3/3
f  7/3/3 3/3/3 5/4/3
f  2/2/4 6/2/4 4/4/4
f  5/4/4 4/4/4 6/2/4
f  1/1/5 8/1/5 2/2/5
f  6/2/5 2/2/5 8/1/5
f  3/3/6 7/3/6 1/1/6
f  8/1/6 1/1/6 7/3/6

