# File produced by Open Asset Import Library (http://www.assimp.sf.net)
# (assimp v3.1.0)

mtllib box.mtl

# 8 vertex positions
v  0.5 0.5 0.5
v  -0.5 0.5 0.5
v  -0.5 -0.5 0.5
v  0.5 0.5 -0.5
v  0.5 -0.5 0.5
v  -0.5 0.5 -0.5
v  0.5 -0.5 -0.5
v  -0.5 -0.5 -0.5

# 4 UV coordinates
vt 1 1 0
vt 0 1 0
vt 0 0 0
vt 1 0 0

# 6 vertex normals
vn 0 0 1
vn 1 0 0
vn 0 0 -1
vn -1 0 0
vn 0 1 0
vn 0 -1 0

# Mesh 'Cube' with 12 faces
g Cube
usemtl Mat
f  1/1/1 2/2/1 3/3/1
f  4/1/2 1/2/2 5/3/2
f  6/1/3 4/2/3 7/3/3
f  2/1/4 6/2/4 8/3/4
f  4/1/5 6/2/5 2/3/5
f  5/1/6 3/2/6 8/3/6
f  5/4/1 1/1/1 3/3/1
f  7/4/2 4/1/2 5/3/2
f  8/4/3 6/1/3 7/3/3
f  3/4/4 2/1/4 8/3/4
f  1/4/5 4/1/5 2/3/5
f  7/4/6 5/1/6 8/3/6

